<svg width="40" height="40" viewBox="0 0 40 40" fill="none" xmlns="http://www.w3.org/2000/svg">
<path d="M39.375 19.3749C39.373 17.6688 38.9065 15.9954 38.0257 14.5343C37.1448 13.0732 35.8828 11.8795 34.375 11.0812C34.3398 9.42513 33.7994 7.81939 32.8261 6.47912C31.8528 5.13884 30.4931 4.12806 28.9292 3.58223C27.3653 3.0364 25.672 2.98159 24.076 3.42515C22.4801 3.86871 21.0579 4.78945 20 6.06398C18.942 4.78945 17.5198 3.86871 15.9239 3.42515C14.328 2.98159 12.6346 3.0364 11.0707 3.58223C9.50684 4.12806 8.14714 5.13884 7.17382 6.47912C6.20051 7.81939 5.66008 9.42513 5.62496 11.0812C4.11561 11.8773 2.85217 13.0703 1.97086 14.5315C1.08954 15.9928 0.623779 17.6669 0.623779 19.3734C0.623779 21.0798 1.08954 22.7539 1.97086 24.2152C2.85217 25.6764 4.11561 26.8694 5.62496 27.6655C5.65947 29.3218 6.19945 30.928 7.17253 32.2688C8.14561 33.6095 9.50529 34.6208 11.0693 35.167C12.6333 35.7132 14.3269 35.7683 15.9231 35.3248C17.5193 34.8814 18.9418 33.9606 20 32.6859C21.0581 33.9606 22.4806 34.8814 24.0768 35.3248C25.673 35.7683 27.3666 35.7132 28.9306 35.167C30.4946 34.6208 31.8543 33.6095 32.8274 32.2688C33.8005 30.928 34.3405 29.3218 34.375 27.6655C35.8833 26.8687 37.1459 25.6757 38.0269 24.2149C38.9079 22.7541 39.3739 21.0808 39.375 19.3749ZM13.75 31.8749C12.8059 31.8748 11.8873 31.5693 11.1312 31.0041C10.375 30.4389 9.82201 29.6443 9.55465 28.739C9.7109 28.739 9.84997 28.7499 9.99996 28.7499H11.25C11.7472 28.7499 12.2242 28.5524 12.5758 28.2007C12.9274 27.8491 13.125 27.3722 13.125 26.8749C13.125 26.3776 12.9274 25.9007 12.5758 25.5491C12.2242 25.1975 11.7472 24.9999 11.25 24.9999H9.99996C8.67236 25.0008 7.38721 24.5322 6.37188 23.6768C5.35655 22.8214 4.6765 21.6345 4.45202 20.326C4.22755 19.0175 4.47313 17.6718 5.14531 16.5269C5.81749 15.3821 6.87296 14.5118 8.12496 14.0702C8.49069 13.9409 8.8073 13.7014 9.03118 13.3846C9.25506 13.0678 9.37517 12.6894 9.37496 12.3015V11.2499C9.37496 10.0896 9.8359 8.97679 10.6564 8.15632C11.4768 7.33585 12.5896 6.87492 13.75 6.87492C14.9103 6.87492 16.0231 7.33585 16.8436 8.15632C17.664 8.97679 18.125 10.0896 18.125 11.2499V20.653C17.7664 20.4231 17.3903 20.222 17 20.0515C16.5441 19.8526 16.0279 19.8429 15.565 20.0246C15.102 20.2062 14.7301 20.5644 14.5312 21.0202C14.3323 21.4761 14.3226 21.9923 14.5043 22.4552C14.686 22.9182 15.0441 23.2901 15.5 23.489C16.4219 23.8906 17.1773 24.5975 17.6391 25.4908C18.1009 26.3841 18.2408 27.4093 18.0354 28.3937C17.83 29.378 17.2917 30.2616 16.5112 30.8957C15.7307 31.5297 14.7556 31.8755 13.75 31.8749ZM30 24.9999H28.75C28.2527 24.9999 27.7758 25.1975 27.4241 25.5491C27.0725 25.9007 26.875 26.3776 26.875 26.8749C26.875 27.3722 27.0725 27.8491 27.4241 28.2007C27.7758 28.5524 28.2527 28.7499 28.75 28.7499H30C30.1562 28.7499 30.2968 28.7499 30.4453 28.739C30.237 29.4449 29.854 30.0868 29.3318 30.6054C28.8095 31.124 28.1649 31.5024 27.4576 31.7057C26.7502 31.909 26.003 31.9306 25.2852 31.7684C24.5673 31.6063 23.9019 31.2656 23.3506 30.778C22.7993 30.2904 22.3799 29.6717 22.1313 28.9789C21.8827 28.2862 21.8128 27.542 21.9282 26.8151C22.0436 26.0882 22.3404 25.4022 22.7913 24.8205C23.2422 24.2389 23.8326 23.7803 24.5078 23.4874C24.9636 23.2885 25.3218 22.9167 25.5034 22.4537C25.6851 21.9907 25.6754 21.4745 25.4765 21.0187C25.2776 20.5628 24.9058 20.2047 24.4428 20.023C23.9798 19.8413 23.4636 19.851 23.0078 20.0499C22.6175 20.2204 22.2413 20.4216 21.8828 20.6515V11.2499C21.8828 10.0896 22.3437 8.97679 23.1642 8.15632C23.9847 7.33585 25.0975 6.87492 26.2578 6.87492C27.4181 6.87492 28.5309 7.33585 29.3514 8.15632C30.1718 8.97679 30.6328 10.0896 30.6328 11.2499V12.3015C30.6326 12.6894 30.7527 13.0678 30.9766 13.3846C31.2004 13.7014 31.5171 13.9409 31.8828 14.0702C33.1404 14.5078 34.202 15.3774 34.8787 16.5242C35.5554 17.6711 35.8033 19.0208 35.5783 20.3332C35.3533 21.6457 34.67 22.8357 33.65 23.6917C32.63 24.5476 31.3393 25.014 30.0078 25.0077L30 24.9999ZM32.5 18.1249C32.5 18.6222 32.3024 19.0991 31.9508 19.4507C31.5992 19.8024 31.1222 19.9999 30.625 19.9999C28.9674 19.9999 27.3776 19.3414 26.2055 18.1693C25.0334 16.9972 24.375 15.4075 24.375 13.7499V13.1249C24.375 12.6276 24.5725 12.1507 24.9241 11.7991C25.2758 11.4475 25.7527 11.2499 26.25 11.2499C26.7472 11.2499 27.2242 11.4475 27.5758 11.7991C27.9274 12.1507 28.125 12.6276 28.125 13.1249V13.7499C28.125 14.413 28.3884 15.0488 28.8572 15.5177C29.326 15.9865 29.9619 16.2499 30.625 16.2499C31.1222 16.2499 31.5992 16.4475 31.9508 16.7991C32.3024 17.1507 32.5 17.6276 32.5 18.1249ZM15.625 13.7499C15.625 15.4075 14.9665 16.9972 13.7944 18.1693C12.6223 19.3414 11.0326 19.9999 9.37496 19.9999C8.87768 19.9999 8.40077 19.8024 8.04914 19.4507C7.69751 19.0991 7.49996 18.6222 7.49996 18.1249C7.49996 17.6276 7.69751 17.1507 8.04914 16.7991C8.40077 16.4475 8.87768 16.2499 9.37496 16.2499C10.038 16.2499 10.6739 15.9865 11.1427 15.5177C11.6116 15.0488 11.875 14.413 11.875 13.7499V13.1249C11.875 12.6276 12.0725 12.1507 12.4241 11.7991C12.7758 11.4475 13.2527 11.2499 13.75 11.2499C14.2472 11.2499 14.7242 11.4475 15.0758 11.7991C15.4274 12.1507 15.625 12.6276 15.625 13.1249V13.7499Z" fill="#004D61"/>
</svg>
