<svg width="40" height="50" viewBox="0 0 40 50" fill="none" xmlns="http://www.w3.org/2000/svg">
<g clip-path="url(#clip0_251_28)">
<mask id="mask0_251_28" style="mask-type:luminance" maskUnits="userSpaceOnUse" x="1" y="-1" width="37" height="37">
<path d="M1.55249 -0.132324H37.7169V35.8834H1.55249V-0.132324Z" fill="white"/>
</mask>
<g mask="url(#mask0_251_28)">
<path d="M32.1532 27.728C31.8721 27.4462 31.8364 27.0022 32.0676 26.6792C33.4018 24.8108 34.3079 22.625 34.6889 20.3566C34.7559 19.9625 35.0956 19.675 35.4965 19.675H37.6027V15.9993H35.4965C35.0956 15.9993 34.7559 15.7118 34.6889 15.3176C34.3079 13.0479 33.4018 10.8607 32.069 8.99507C31.8379 8.67061 31.875 8.22662 32.1561 7.94486L33.6415 6.45921L30.9903 3.81235L29.4977 5.29231C29.2151 5.57265 28.7699 5.60965 28.4446 5.37912C26.5696 4.04715 24.3807 3.1421 22.1104 2.76357C21.7151 2.69811 21.4269 2.358 21.4269 1.95812V-0.132324H17.7411V1.95812C17.7411 2.358 17.4514 2.69811 17.0562 2.76357C14.7774 3.14494 12.5841 4.04857 10.7134 5.37627C10.3881 5.6068 9.94288 5.57123 9.66034 5.28947L8.16776 3.80808L5.51223 6.45351L6.99624 7.94628C7.27735 8.22805 7.31302 8.67204 7.08329 8.99507C5.74767 10.8649 4.84014 13.0507 4.46057 15.3176C4.3935 15.7118 4.05247 15.9993 3.65292 15.9993H1.56531V19.675H3.65292C4.05247 19.675 4.3935 19.9625 4.46057 20.3566C4.84156 22.6264 5.74767 24.8122 7.08043 26.6792C7.31302 27.0037 7.27592 27.4462 6.99339 27.7294L5.50794 29.2151L8.16063 31.8619L9.66177 30.3805C9.9443 30.1016 10.3895 30.066 10.7134 30.2952C12.5856 31.6257 14.7802 32.5308 17.0576 32.9107C17.4514 32.9762 17.7411 33.3163 17.7411 33.7162V35.8066H21.4269V33.7162C21.4269 33.3163 21.7151 32.9762 22.1104 32.9107C24.3821 32.5308 26.5724 31.6271 28.4446 30.2966C28.7714 30.066 29.2151 30.103 29.4991 30.3834L30.986 31.8648L33.6387 29.2208L32.1532 27.728ZM19.5747 30.9056C12.3487 30.9056 6.4697 25.0427 6.4697 17.8364C6.4697 10.6301 12.3487 4.76863 19.5747 4.76863C26.8008 4.76863 32.6783 10.6301 32.6783 17.8364C32.6783 25.0427 26.8008 30.9056 19.5747 30.9056Z" fill="#095D40"/>
</g>
<path d="M19.579 20.2869H19.5748C16.8693 20.2897 14.6689 22.4869 14.6689 25.1878V28.1719C16.1572 28.8763 17.8211 29.272 19.5748 29.272C21.3356 29.272 23.0051 28.8735 24.4977 28.1634V25.1878C24.4977 23.8815 23.9854 22.6491 23.0565 21.7213C22.1276 20.7963 20.8918 20.2869 19.579 20.2869Z" fill="#095D40"/>
<path d="M19.5747 6.40228C13.252 6.40228 8.10785 11.5309 8.10785 17.8364C8.10785 21.7185 10.0571 25.1551 13.0308 27.2214V25.1879C13.0308 22.5567 14.5976 20.2841 16.8493 19.2495C16.0088 18.501 15.4794 17.4124 15.4794 16.2028C15.4794 13.9515 17.3173 12.1186 19.5747 12.1186C21.8336 12.1186 23.6701 13.9515 23.6701 16.2028C23.6701 17.4095 23.1435 18.4939 22.3073 19.2424C23.008 19.564 23.6515 20.008 24.2137 20.5672C25.4537 21.8039 26.1358 23.4446 26.1358 25.1879V27.21C29.0996 25.1409 31.0402 21.7099 31.0402 17.8364C31.0416 11.5309 25.8975 6.40228 19.5747 6.40228Z" fill="#095D40"/>
<path d="M19.5791 18.6532C20.9333 18.6504 22.032 17.5518 22.032 16.2027C22.032 14.8523 20.9304 13.7523 19.5748 13.7523C18.2206 13.7523 17.1176 14.8523 17.1176 16.2027C17.1176 17.5546 18.2206 18.6532 19.5748 18.6532H19.5791Z" fill="#095D40"/>
<mask id="mask1_251_28" style="mask-type:luminance" maskUnits="userSpaceOnUse" x="-1" y="36" width="10" height="9">
<path d="M-0.0955811 36.2477H8.85847V44.9909H-0.0955811V36.2477Z" fill="white"/>
</mask>
<g mask="url(#mask1_251_28)">
<path d="M5.62643 39.2802L4.27798 36.5551L2.92952 39.2802L-0.0870361 39.7171L2.09618 41.8389L1.57963 44.8344L4.27798 43.4199L6.97632 44.8344L6.45977 41.8389L8.64299 39.7171L5.62643 39.2802Z" fill="#095D40"/>
</g>
<mask id="mask2_251_28" style="mask-type:luminance" maskUnits="userSpaceOnUse" x="31" y="36" width="10" height="9">
<path d="M31.1415 36.2477H40.1784V44.9909H31.1415V36.2477Z" fill="white"/>
</mask>
<g mask="url(#mask2_251_28)">
<path d="M40.0728 39.7171L37.0562 39.2802L35.7092 36.5551L34.3607 39.2802L31.3442 39.7171L33.5274 41.8389L33.0108 44.8344L35.7092 43.4199L38.4061 44.8344L37.8896 41.8389L40.0728 39.7171Z" fill="#095D40"/>
</g>
<mask id="mask3_251_28" style="mask-type:luminance" maskUnits="userSpaceOnUse" x="14" y="39" width="12" height="11">
<path d="M14.7032 39.5264H25.2968V49.8677H14.7032V39.5264Z" fill="white"/>
</mask>
<g mask="url(#mask3_251_28)">
<path d="M21.5982 43.0854L19.9843 39.8224L18.369 43.0854L14.7589 43.6091L17.3716 46.1478L16.7551 49.7353L19.9843 48.0405L23.2135 49.7353L22.597 46.1478L25.2098 43.6091L21.5982 43.0854Z" fill="#095D40"/>
</g>
</g>
<defs>
<clipPath id="clip0_251_28">
<rect width="40" height="50" fill="white"/>
</clipPath>
</defs>
</svg>
