<svg width="49" height="50" viewBox="0 0 49 50" fill="none" xmlns="http://www.w3.org/2000/svg">
<g clip-path="url(#clip0_251_64)">
<path d="M37.9756 39.9812C37.8746 39.9812 37.7736 39.9392 37.6979 39.8582C37.5507 39.699 37.5563 39.4488 37.7105 39.2968C44.2071 32.9051 45.5491 22.8848 40.9764 14.9305C40.867 14.7424 40.9273 14.4994 41.111 14.3865C41.2933 14.2751 41.5288 14.3374 41.6368 14.5254C43.8986 18.4577 44.8227 23.1322 44.2422 27.6909C43.6518 32.3191 41.5218 36.6435 38.242 39.8712C38.1663 39.945 38.0709 39.9812 37.9756 39.9812Z" fill="#095D40"/>
<path d="M40.5753 44.0958C40.4687 44.0958 40.3636 44.0509 40.2864 43.9627C40.1462 43.7992 40.1602 43.5475 40.3187 43.4028C49.3113 35.1707 50.9603 21.2717 44.1538 11.0721C44.0332 10.8927 44.0781 10.6453 44.252 10.5208C44.4273 10.3964 44.667 10.4413 44.7876 10.6221C51.8129 21.1516 50.112 35.4991 40.8291 43.996C40.7562 44.0625 40.665 44.0958 40.5753 44.0958Z" fill="#095D40"/>
<path d="M7.6815 35.667C7.54968 35.667 7.42208 35.5975 7.35057 35.4731C5.08875 31.5408 4.16467 26.8649 4.7452 22.3062C5.33554 17.6794 7.46555 13.3536 10.7454 10.1273C10.8996 9.97542 11.1436 9.98121 11.2895 10.1404C11.4367 10.2995 11.4311 10.5498 11.2768 10.7017C4.78025 17.0935 3.43831 27.1137 8.01102 35.068C8.1204 35.2561 8.0601 35.4991 7.87641 35.612C7.81611 35.6496 7.7474 35.667 7.6815 35.667Z" fill="#095D40"/>
<path d="M4.51665 39.5472C4.39466 39.5472 4.27407 39.4878 4.19975 39.3764C-2.8269 28.8469 -1.12457 14.4994 8.15688 6.0026C8.31674 5.85648 8.55932 5.87239 8.70095 6.03588C8.84117 6.19936 8.82715 6.44965 8.6687 6.59577C-0.323891 14.8278 -1.97293 28.7268 4.83356 38.9265C4.95415 39.1059 4.90928 39.3533 4.7354 39.4777C4.6681 39.5255 4.59238 39.5472 4.51665 39.5472Z" fill="#095D40"/>
<path d="M44.7667 16.9386C44.7078 16.9386 44.6475 16.9242 44.5928 16.8952L36.5846 12.6982C36.4612 12.6345 36.3812 12.5072 36.3742 12.3669C36.3672 12.2251 36.4331 12.0891 36.5481 12.0124L38.4201 10.7552C38.5982 10.6366 38.8366 10.6886 38.9516 10.8709C39.0679 11.0547 39.0175 11.3006 38.8394 11.4207L37.5269 12.3018L44.3474 15.8767L43.9365 7.99477L42.8288 8.73986C42.6507 8.85994 42.4123 8.80785 42.2959 8.62411C42.1809 8.44038 42.23 8.19443 42.4081 8.07435L44.0753 6.95455C44.1903 6.87788 44.3376 6.87064 44.4596 6.9343C44.5816 6.99796 44.6615 7.12527 44.6699 7.26705L45.1509 16.5205C45.1579 16.6623 45.092 16.7969 44.977 16.8735C44.9139 16.9169 44.8396 16.9386 44.7667 16.9386Z" fill="#095D40"/>
<path d="M32.6905 46.3122C32.5615 46.3122 32.4395 46.2456 32.3694 46.1328C32.2937 46.0142 32.2867 45.8623 32.3484 45.7364L36.4149 37.4739C36.478 37.3466 36.6 37.2642 36.7374 37.2569C36.8748 37.2497 37.0052 37.3177 37.0809 37.4363L38.2995 39.3678C38.4145 39.5515 38.3654 39.7974 38.1873 39.9161C38.0092 40.0362 37.7709 39.9841 37.6545 39.8003L36.7991 38.4462L33.3356 45.4832L40.9736 45.0593L40.2528 43.9164C40.1364 43.7326 40.1869 43.4867 40.365 43.3666C40.5431 43.248 40.7815 43.2986 40.8965 43.4823L41.9818 45.2025C42.0575 45.3212 42.0645 45.4731 42.0028 45.5989C41.9411 45.7248 41.8177 45.8073 41.6803 45.816L32.7116 46.3122C32.7045 46.3122 32.6975 46.3122 32.6905 46.3122Z" fill="#095D40"/>
<path d="M4.70175 43.1076C4.64286 43.1076 4.58256 43.0932 4.52787 43.0642C4.40588 43.0006 4.32595 42.8733 4.31754 42.7315L3.83657 33.478C3.82956 33.3362 3.89546 33.2017 4.01045 33.1235C4.12543 33.0469 4.27267 33.0382 4.39466 33.1033L12.4029 37.2989C12.5263 37.364 12.6062 37.4899 12.6132 37.6316C12.6202 37.7734 12.5543 37.908 12.4393 37.9861L10.5673 39.2433C10.3893 39.362 10.1509 39.3099 10.0359 39.1261C9.9195 38.9424 9.96998 38.6965 10.1481 38.5778L11.4606 37.6953L4.64005 34.1218L5.05091 42.0023L6.15868 41.2587C6.33677 41.1386 6.57515 41.1907 6.69154 41.3744C6.80652 41.5581 6.75744 41.8041 6.57936 41.9227L4.91209 43.0425C4.84899 43.0859 4.77467 43.1076 4.70175 43.1076Z" fill="#095D40"/>
<path d="M12.229 12.7416C12.1 12.7416 11.978 12.675 11.9065 12.5622L10.6879 10.6308C10.5729 10.447 10.622 10.2011 10.8001 10.0824C10.9782 9.96236 11.2166 10.0144 11.333 10.1982L12.1883 11.5523L15.6519 4.51531L8.01385 4.93921L8.73461 6.08215C8.85099 6.26589 8.80051 6.51184 8.62243 6.63192C8.44434 6.75055 8.20596 6.69847 8.09098 6.51473L7.00564 4.79598C6.92992 4.67735 6.92291 4.52544 6.98461 4.39957C7.04631 4.2737 7.1697 4.19123 7.30712 4.18255L16.2759 3.68632C16.4133 3.67908 16.5437 3.74708 16.618 3.86571C16.6937 3.98435 16.7008 4.13481 16.6391 4.26213L12.5725 12.5246C12.5094 12.6504 12.3875 12.7329 12.25 12.7416C12.243 12.7416 12.236 12.7416 12.229 12.7416Z" fill="#095D40"/>
<path d="M24.493 42.0877C24.2812 42.0877 24.1088 41.9097 24.1088 41.6913V20.2011C24.1088 19.9826 24.2812 19.8047 24.493 19.8047C24.7061 19.8047 24.8786 19.9826 24.8786 20.2011V41.6913C24.8786 41.9097 24.7061 42.0877 24.493 42.0877Z" fill="#095D40"/>
<path d="M24.1074 38.1482C24.1004 38.3102 24.099 38.4737 24.1018 38.6372C23.1749 39.0857 22.1541 39.32 21.1318 39.32C19.7941 39.32 18.49 38.9222 17.3612 38.1699C15.3434 36.8244 14.1375 34.4792 14.1781 32.0052C15.1078 31.5538 16.1357 31.3151 17.1635 31.3151C18.4998 31.3151 19.8039 31.713 20.9327 32.4653C22.8201 33.724 23.9966 35.8551 24.1074 38.1482ZM22.3308 37.5622C22.4528 37.3843 22.4135 37.1369 22.241 37.0096L21.753 36.6493C21.8933 36.3455 21.9634 36.02 21.9508 35.7017C21.9311 35.2315 21.7278 34.8192 21.3927 34.5718C21.0575 34.3244 20.6144 34.2593 20.1755 34.3938C19.7661 34.5197 19.3903 34.8047 19.1196 35.1968C18.95 35.4413 18.713 35.625 18.4704 35.6988C18.3484 35.7364 18.1128 35.7784 17.9193 35.6366C17.5982 35.3993 17.6052 34.7975 17.9347 34.3229C18.2629 33.847 18.8125 33.6459 19.1336 33.8831C19.3075 34.0104 19.5473 33.9685 19.6707 33.7905C19.7941 33.6126 19.7548 33.3637 19.581 33.2364C18.9976 32.8067 18.1535 32.9615 17.5603 33.559L17.0724 33.1988C16.8999 33.0729 16.6587 33.1134 16.5353 33.2914C16.4119 33.4708 16.4526 33.7182 16.625 33.8455L17.113 34.2043C16.7568 34.9769 16.8887 35.8522 17.472 36.2833C17.6935 36.4453 17.9614 36.5292 18.2432 36.5292C18.3905 36.5292 18.5405 36.5061 18.6905 36.4598C19.1 36.3354 19.4744 36.0489 19.745 35.6583C19.9161 35.4123 20.1531 35.2286 20.3943 35.1548C20.5177 35.1172 20.7518 35.0753 20.9453 35.2185C21.1389 35.3603 21.1767 35.6033 21.1823 35.735C21.1921 35.9954 21.101 36.2862 20.9313 36.5321C20.6018 37.0067 20.0521 37.2078 19.731 36.972C19.5585 36.8446 19.3173 36.8866 19.1953 37.0631C19.0705 37.2425 19.1112 37.4899 19.2837 37.6172C19.5095 37.7836 19.7731 37.8617 20.0465 37.8617C20.4826 37.8617 20.9411 37.6621 21.3057 37.296L21.7937 37.6548C21.861 37.7055 21.9395 37.7286 22.0167 37.7286C22.1373 37.7286 22.2536 37.6707 22.3308 37.5622Z" fill="#095D40"/>
<path d="M34.8093 32.0052C34.85 34.4792 33.644 36.8244 31.6262 38.1699C31.0625 38.546 30.4539 38.8339 29.8201 39.0264C29.1849 39.2202 28.5244 39.32 27.8556 39.32C26.8333 39.32 25.8125 39.0857 24.8856 38.6372C24.8884 38.4737 24.887 38.3102 24.88 38.1496C24.9908 35.8551 26.1673 33.724 28.0547 32.4653C29.1835 31.713 30.4876 31.3151 31.8239 31.3151C32.8518 31.3151 33.8796 31.5538 34.8093 32.0052ZM32.3427 33.8079C32.5138 33.6777 32.5503 33.4303 32.4255 33.2523C32.2993 33.0758 32.0595 33.0382 31.887 33.1684L31.4046 33.5345C31.1691 33.3001 30.8886 33.1308 30.5927 33.0454C30.1524 32.9167 29.7107 32.9876 29.3784 33.2393C29.0461 33.4911 28.8484 33.9063 28.8343 34.3765C28.8231 34.8177 28.9689 35.2735 29.2438 35.6612C29.5803 36.1328 29.5943 36.7347 29.276 36.9748C28.9577 37.2165 28.4052 37.0226 28.0701 36.5509C27.7364 36.0807 27.721 35.4789 28.0393 35.2387C28.2103 35.1085 28.2468 34.8597 28.122 34.6832C27.9958 34.5067 27.756 34.4691 27.5835 34.5978C27.0058 35.0362 26.8852 35.9129 27.2498 36.6812L26.7674 37.0472C26.5949 37.1759 26.5585 37.4248 26.6847 37.6013C26.759 37.7069 26.8768 37.7633 26.9946 37.7633C27.0745 37.7633 27.1544 37.7387 27.2218 37.6867L27.7055 37.3206C28.0687 37.6765 28.5216 37.8704 28.9521 37.8704C29.2326 37.8704 29.5032 37.7879 29.7304 37.6143C30.3894 37.1166 30.4553 36.046 29.8832 35.2199C29.8776 35.2098 29.8706 35.2011 29.865 35.1924C29.6911 34.9494 29.5957 34.66 29.6042 34.3982C29.6084 34.2665 29.642 34.0235 29.8341 33.8788C30.0248 33.7341 30.2604 33.7732 30.3838 33.8079C30.6264 33.8802 30.8662 34.0596 31.0387 34.3027C31.3738 34.7743 31.3892 35.3747 31.0709 35.6163C30.8998 35.7465 30.862 35.9939 30.9882 36.1704C31.0625 36.2775 31.1803 36.3339 31.2981 36.3339C31.3766 36.3339 31.4565 36.3079 31.5252 36.2558C32.103 35.8189 32.2236 34.9422 31.859 34.1739L32.3427 33.8079Z" fill="#095D40"/>
<path d="M24.1088 27.4132C24.1088 27.4392 24.1074 27.4653 24.106 27.4913C24.106 27.4928 24.106 27.4942 24.106 27.4957C24.1031 27.5912 24.1017 27.6809 24.1017 27.7662C23.2856 28.1554 22.3854 28.3608 21.4852 28.3608C20.2961 28.3608 19.1364 28.0078 18.1324 27.338C16.3459 26.1473 15.2746 24.0741 15.3013 21.8822C16.123 21.4887 17.0274 21.2804 17.9333 21.2804C19.1224 21.2804 20.2806 21.6349 21.2846 22.3033C22.9701 23.4274 24.026 25.3371 24.1088 27.4132ZM22.6602 26.9647C22.7836 26.7853 22.7444 26.5394 22.5719 26.4106L22.0853 26.0504C22.4443 25.2778 22.3125 24.4025 21.7306 23.9714C21.3954 23.724 20.9523 23.6574 20.5134 23.7891C20.104 23.9149 19.7281 24.1985 19.4561 24.5891C19.1252 25.0637 18.5769 25.2633 18.2558 25.0275C18.0623 24.8828 18.0244 24.6412 18.0202 24.5096C18.0104 24.2477 18.1029 23.9569 18.2726 23.7138C18.4423 23.4679 18.6807 23.2842 18.9233 23.2118C19.0453 23.1742 19.2808 23.1322 19.4729 23.2755C19.6468 23.4042 19.8866 23.3637 20.01 23.1858C20.1348 23.0064 20.0955 22.759 19.9231 22.6317C19.5865 22.3828 19.1434 22.3177 18.7059 22.4508C18.41 22.5391 18.1338 22.7127 17.8996 22.9471L17.413 22.5868C17.2406 22.4595 17.0008 22.5 16.876 22.678C16.7526 22.8559 16.7919 23.1048 16.9643 23.2321L17.4509 23.5923C17.3093 23.8961 17.2406 24.2217 17.2518 24.5399C17.2686 25.0116 17.4719 25.4225 17.8071 25.6713C18.0328 25.8377 18.2979 25.9173 18.5727 25.9173C19.114 25.9173 19.6945 25.6077 20.0801 25.0521C20.2512 24.8076 20.4882 24.6253 20.7308 24.5515C20.8542 24.5139 21.0897 24.4719 21.2818 24.6166C21.6029 24.8539 21.5945 25.4557 21.2636 25.9288C21.0939 26.1748 20.857 26.3571 20.6144 26.4309C20.491 26.4685 20.2568 26.509 20.0633 26.3658C19.8908 26.2384 19.651 26.2789 19.5262 26.4569C19.4028 26.6349 19.4421 26.8822 19.6146 27.011C19.8361 27.1745 20.104 27.2599 20.3886 27.2599C20.533 27.2599 20.6817 27.2367 20.8303 27.1919C21.1248 27.1022 21.4038 26.93 21.6366 26.6942L22.1232 27.0544C22.1919 27.105 22.2704 27.1296 22.3475 27.1296C22.4667 27.1296 22.5845 27.0732 22.6602 26.9647Z" fill="#095D40"/>
<path d="M33.6861 21.8837C33.7127 24.0741 32.6414 26.1473 30.855 27.338C29.851 28.0078 28.6927 28.3608 27.5036 28.3608H27.5022C26.6006 28.3608 25.7017 28.1554 24.8842 27.7662C24.8842 27.6809 24.8842 27.5912 24.8814 27.4957C24.8814 27.4942 24.8814 27.4928 24.8814 27.4899C24.88 27.4653 24.8786 27.4392 24.8786 27.4132C24.9613 25.3371 26.0172 23.4274 27.7027 22.3033C28.7053 21.6349 29.865 21.2804 31.0541 21.2804C31.9599 21.2804 32.8644 21.4887 33.6861 21.8837ZM32.0076 23.2017C32.1787 23.0729 32.2151 22.8241 32.0889 22.6476C31.9641 22.4711 31.723 22.432 31.5519 22.5622L31.0681 22.9283C30.4665 22.338 29.621 22.1962 29.0433 22.6331C28.3772 23.138 28.3183 24.2246 28.9086 25.055C29.0825 25.298 29.1779 25.5888 29.1695 25.8493C29.1667 25.9809 29.1316 26.224 28.9395 26.3686C28.6212 26.6103 28.0701 26.4164 27.735 25.9462C27.3998 25.4746 27.3858 24.8727 27.7041 24.6325C27.8752 24.5023 27.9117 24.2535 27.7855 24.077C27.6607 23.9005 27.4195 23.8629 27.2484 23.9916C26.6707 24.43 26.5501 25.3067 26.9147 26.075L26.4309 26.441C26.2598 26.5712 26.2234 26.8186 26.3496 26.9951C26.4239 27.1007 26.5403 27.1571 26.6595 27.1571C26.7394 27.1571 26.8193 27.1325 26.8866 27.0805L27.3704 26.7144C27.7336 27.0718 28.1865 27.2642 28.617 27.2642C28.8974 27.2642 29.1681 27.1832 29.3952 27.0096C29.729 26.7564 29.9267 26.3441 29.9393 25.8724C29.9519 25.4311 29.8047 24.974 29.5298 24.5862C29.1933 24.116 29.1807 23.5142 29.499 23.2726C29.8173 23.0324 30.3684 23.2263 30.7035 23.6965C31.0387 24.1681 31.0527 24.7685 30.7344 25.0101C30.5633 25.1403 30.5268 25.3877 30.653 25.5657C30.7274 25.6713 30.8451 25.7277 30.9629 25.7277C31.0415 25.7277 31.1214 25.7017 31.1901 25.6496C31.7678 25.2127 31.8884 24.336 31.5238 23.5677L32.0076 23.2017Z" fill="#095D40"/>
<path d="M24.493 8.77026C26.3145 9.95082 27.4377 12.0298 27.4377 14.2535C27.4377 16.4786 26.3145 18.5576 24.493 19.7381C22.6729 18.5576 21.5497 16.4786 21.5497 14.2535C21.5497 12.0298 22.6729 9.95082 24.493 8.77026ZM25.7845 13.614C25.9976 13.614 26.1701 13.4361 26.1701 13.2162C26.1701 12.5391 25.6176 11.969 24.8786 11.8215V11.2934C24.8786 11.075 24.7061 10.897 24.493 10.897C24.2813 10.897 24.1088 11.075 24.1088 11.2934V11.8215C23.3698 11.969 22.8173 12.5391 22.8173 13.2162C22.8173 14.0075 23.5703 14.6513 24.493 14.6513C24.9852 14.6513 25.4002 14.945 25.4002 15.2923C25.4002 15.6395 24.9852 15.9317 24.493 15.9317C24.0022 15.9317 23.5871 15.6395 23.5871 15.2923C23.5871 15.0723 23.4147 14.8958 23.2029 14.8958C22.9898 14.8958 22.8173 15.0723 22.8173 15.2923C22.8173 15.9693 23.3698 16.5379 24.1088 16.6869V17.215C24.1088 17.4335 24.2813 17.6114 24.493 17.6114C24.7061 17.6114 24.8786 17.4335 24.8786 17.215V16.6869C25.6176 16.5379 26.1701 15.9693 26.1701 15.2923C26.1701 14.5009 25.4171 13.8571 24.493 13.8571C24.0022 13.8571 23.5871 13.5634 23.5871 13.2162C23.5871 12.8689 24.0022 12.5752 24.493 12.5752C24.9852 12.5752 25.4002 12.8689 25.4002 13.2162C25.4002 13.4361 25.5727 13.614 25.7845 13.614Z" fill="#095D40"/>
<path d="M32.6919 45.9158L38.2097 45.6105C28.2777 52.6649 14.5763 51.1343 6.369 41.59L4.70173 42.7098L4.51664 39.1507V39.1493L4.22076 33.4563L7.6801 35.2691L12.229 37.6533L10.357 38.9091C16.7596 45.8348 26.7983 47.0298 34.4489 42.3466L32.6919 45.9158Z" fill="#095D40"/>
<path d="M44.4708 10.8478L44.7666 16.5422L41.3087 14.7295L41.3073 14.728L36.7584 12.3452L38.6304 11.088C32.2278 4.16378 22.1905 2.96875 14.5385 7.65191L16.2955 4.08276L10.7776 4.38802C20.7097 -2.66782 34.4111 -1.13715 42.6184 8.40857L44.2857 7.28733L44.4708 10.8478Z" fill="#095D40"/>
</g>
<defs>
<clipPath id="clip0_251_64">
<rect width="49" height="50" fill="white"/>
</clipPath>
</defs>
</svg>
