<svg width="40" height="50" viewBox="0 0 40 50" fill="none" xmlns="http://www.w3.org/2000/svg">
<g clip-path="url(#clip0_251_55)">
<mask id="mask0_251_55" style="mask-type:luminance" maskUnits="userSpaceOnUse" x="0" y="0" width="40" height="50">
<path d="M0 0H40V50H0V0Z" fill="white"/>
</mask>
<g mask="url(#mask0_251_55)">
<path d="M20.0048 0.315059C19.7202 0.320761 19.4952 0.560268 19.5007 0.848247V4.80582C19.4896 5.10235 19.7229 5.34899 20.0118 5.34899C20.3006 5.34899 20.5312 5.10235 20.5242 4.80582V0.848247C20.5284 0.551715 20.2937 0.310782 20.0048 0.315059ZM14.9776 0.996514C14.6318 0.98796 14.379 1.32726 14.4735 1.66656L15.472 5.4887C15.5386 5.77811 15.8219 5.95346 16.1039 5.8779C16.383 5.80092 16.5441 5.50153 16.4594 5.21783L15.4623 1.39569C15.4053 1.16474 15.2081 1.00364 14.9776 0.996514ZM10.2434 2.99811C9.85729 3.01094 9.62398 3.45004 9.82396 3.79077L11.7529 7.21943C11.889 7.48032 12.2084 7.57156 12.4598 7.42472C12.7084 7.27503 12.7903 6.94713 12.6389 6.69194L10.7114 3.26613C10.6169 3.0922 10.4378 2.98956 10.2434 2.99811ZM27.3832 4.54065C26.3361 4.54493 25.2487 4.67466 24.128 4.94268L25.3335 9.5532C25.5612 9.38782 25.8223 9.25809 26.1056 9.18253C26.4278 9.09272 26.7528 9.07703 27.0652 9.12265C27.9998 9.25666 28.8164 9.94952 29.0747 10.9432C29.4205 12.2648 28.6498 13.6362 27.3596 13.9912C27.0763 14.0668 26.7889 14.091 26.5097 14.0639L27.7277 18.7272L32.1258 17.5197C32.5758 17.3015 33.034 17.8048 32.791 18.2524C32.7882 18.2567 32.7855 18.2624 32.7799 18.2681C32.6008 18.5889 32.5396 18.9724 32.6424 19.3587C32.8438 20.13 33.6048 20.5819 34.3575 20.3752C35.1088 20.1671 35.5463 19.3873 35.3477 18.6146C35.2449 18.2282 35.0047 17.926 34.695 17.7421C34.6894 17.7392 34.6839 17.7364 34.6825 17.7349C34.6769 17.7321 34.6714 17.7292 34.6686 17.7264C34.2645 17.4612 34.4061 16.8225 34.8811 16.7626L39.0792 15.6093C38.9668 14.4531 38.7696 13.391 38.4265 12.3774C38.3057 12.4244 38.1835 12.4643 38.0557 12.5014C36.0407 13.0546 33.9548 11.8171 33.4146 9.74994C33.1132 8.59089 33.3562 7.40904 33.9826 6.49805C32.1355 5.23921 29.883 4.5321 27.3805 4.5435L27.3832 4.54065ZM37.0517 5.90071C36.8239 5.90641 36.5906 5.93493 36.3615 6.0005C34.8783 6.40824 34.0062 7.95506 34.4033 9.47621C34.8019 10.9959 36.3101 11.8912 37.7919 11.4835C39.2737 11.0772 40.143 9.52611 39.7472 8.0078C39.45 6.86729 38.5265 6.07749 37.4586 5.9278C37.3253 5.90926 37.1906 5.90071 37.0517 5.90071ZM6.22573 6.17443C5.76466 6.17443 5.53969 6.75039 5.86882 7.07829L8.59492 9.87682C8.79768 10.0835 9.11987 10.0835 9.32124 9.87682C9.52122 9.67153 9.52122 9.34078 9.32124 9.13263L6.59374 6.33411C6.49653 6.23146 6.36321 6.17443 6.22573 6.17443ZM38.1321 6.98847C38.5265 6.99703 38.764 7.44325 38.5599 7.78968L37.2794 10.0123C37.1392 10.2603 36.8323 10.3444 36.5892 10.2047L35.5727 9.61592C35.3213 9.47479 35.2296 9.15117 35.3699 8.89313C35.5116 8.63936 35.8282 8.54955 36.0768 8.69924L36.6531 9.03284L37.6766 7.25364C37.7683 7.08827 37.9419 6.98562 38.1321 6.98847ZM19.4952 8.13896C11.3058 8.42267 6.52153 15.2287 7.74223 22.4239H11.2363C11.1391 22.153 11.0877 21.865 11.0877 21.5628C11.0877 20.1942 12.1779 19.0736 13.5111 19.0736C14.8443 19.0736 15.9344 20.1942 15.9344 21.5628C15.9344 21.865 15.8817 22.153 15.7872 22.4239H19.5021C19.4799 20.3624 19.5202 17.4683 19.5285 16.6443C19.5285 16.6358 19.5285 16.6286 19.5285 16.6229C19.5285 16.6201 19.5285 16.6172 19.5285 16.6158C19.541 16.3364 19.7632 16.1154 20.0354 16.114C20.1909 16.1111 20.3395 16.181 20.4367 16.3079C20.6881 16.5474 21.02 16.6942 21.3908 16.6942C22.1727 16.6942 22.7921 16.0584 22.7921 15.26C22.7921 14.4588 22.1727 13.823 21.3908 13.823C21.002 13.823 20.6576 13.9827 20.4006 14.2421C20.3965 14.2507 20.3909 14.2564 20.3826 14.2607C20.3812 14.2635 20.3784 14.2664 20.3729 14.2692C20.3631 14.2792 20.352 14.2877 20.3423 14.2949C20.3298 14.3063 20.3145 14.3163 20.3006 14.3248C20.2993 14.3248 20.2993 14.3248 20.2993 14.3248C19.9562 14.5287 19.5257 14.2749 19.5285 13.8672C19.5285 12.701 19.516 9.65584 19.4952 8.13754V8.13896ZM3.14688 10.3202C2.60944 10.2988 2.40946 11.0344 2.87746 11.3053L6.21739 13.2841C6.809 13.6277 7.31728 12.7238 6.72984 12.3717L3.38991 10.3943C3.3177 10.3487 3.23298 10.323 3.14688 10.3202ZM1.16792 15.1446C0.572148 15.1602 0.476325 16.0313 1.05543 16.181L4.78143 17.206C5.43414 17.3771 5.69523 16.3763 5.04529 16.1895L1.31929 15.1645C1.27069 15.1488 1.2193 15.1446 1.16792 15.1446ZM13.5111 20.1257C12.7306 20.1257 12.1112 20.763 12.1112 21.5628C12.1112 21.962 12.2682 22.3169 12.5209 22.5793C12.5265 22.585 12.5306 22.5892 12.5362 22.5949C12.5459 22.6049 12.557 22.6192 12.564 22.632C12.5667 22.632 12.5667 22.6349 12.5695 22.6363C12.5778 22.6477 12.5848 22.6577 12.5903 22.6705C12.5931 22.6733 12.5959 22.6791 12.5973 22.6819C12.6056 22.6919 12.6112 22.7033 12.6153 22.7133C12.6181 22.719 12.6209 22.7232 12.6237 22.7289C12.6278 22.7389 12.6334 22.7532 12.6362 22.7632C12.6389 22.7689 12.6417 22.7731 12.6445 22.7788C12.6487 22.7917 12.6514 22.8045 12.657 22.8188C12.657 22.8202 12.657 22.823 12.657 22.8259C12.6612 22.8387 12.6639 22.853 12.6639 22.8658C12.6667 22.8701 12.6667 22.8729 12.6667 22.8786C12.6695 22.8915 12.6695 22.9029 12.6723 22.9157C12.6723 22.92 12.6723 22.9257 12.6723 22.9314C12.6723 22.9385 12.6723 22.9499 12.6723 22.9571C12.6723 22.9685 12.6723 22.9784 12.6723 22.987C12.6695 22.9884 12.6695 22.9941 12.6695 22.997C12.6695 23.0098 12.6667 23.0255 12.6639 23.0412C12.6612 23.0568 12.657 23.0725 12.6542 23.0911C12.6487 23.1067 12.6445 23.1253 12.6389 23.141C12.6362 23.1438 12.6362 23.1467 12.6334 23.1467C12.6237 23.178 12.6084 23.2065 12.5903 23.2336C12.582 23.2493 12.5723 23.2621 12.5626 23.2778C12.4626 23.4047 12.314 23.4774 12.1557 23.4746H7.90611C7.91722 23.5145 7.92416 23.5515 7.93527 23.5886C8.956 27.502 11.0266 29.9327 12.9042 31.9999C13.8444 33.0363 14.7373 33.973 15.415 34.9766C15.9914 35.8306 16.3469 36.7743 16.4594 37.8036H19.5007C19.5007 35.7293 19.4952 33.6394 19.4952 31.5622C19.2313 31.662 18.948 31.7162 18.6536 31.7162C17.319 31.7162 16.2289 30.597 16.2289 29.2284C16.2289 27.8598 17.319 26.7407 18.6536 26.7407C18.948 26.7407 19.2313 26.7963 19.4952 26.8961L19.5007 23.4746H14.8651C14.8595 23.4746 14.8554 23.4746 14.8498 23.4746C14.8318 23.4746 14.8137 23.4717 14.7957 23.4703C14.7943 23.4703 14.7943 23.4703 14.7943 23.4703C14.7776 23.4674 14.7623 23.4646 14.7471 23.4617C14.7471 23.4617 14.7457 23.4617 14.7429 23.4617C14.729 23.4589 14.7165 23.4546 14.7068 23.4489C14.7012 23.4489 14.6971 23.446 14.6915 23.446C14.6804 23.4403 14.6679 23.4361 14.6582 23.4304C14.6526 23.4275 14.6498 23.4275 14.6457 23.4247C14.6318 23.4175 14.6193 23.4118 14.6068 23.4047C14.604 23.4018 14.604 23.4018 14.6012 23.4018C14.5915 23.3933 14.579 23.3862 14.5665 23.3776C14.5665 23.3748 14.5637 23.3719 14.561 23.3705C14.5499 23.3619 14.5401 23.3548 14.5304 23.3434C14.5276 23.3405 14.5249 23.3377 14.5193 23.3363C14.5124 23.3277 14.5013 23.3177 14.4943 23.3092C14.4888 23.3063 14.486 23.3049 14.4846 23.3021C14.4763 23.2906 14.4679 23.2835 14.4638 23.275C14.4582 23.2707 14.4526 23.265 14.4513 23.2593C14.4457 23.2522 14.4401 23.2436 14.436 23.2365C14.4304 23.2279 14.4276 23.2222 14.4221 23.2151C14.4179 23.2065 14.4124 23.1994 14.4096 23.1909C14.404 23.1837 14.4027 23.1752 14.3971 23.168C14.3943 23.1595 14.3915 23.1495 14.3888 23.141C14.3874 23.1338 14.3846 23.1281 14.3818 23.121C14.379 23.1096 14.3735 23.0996 14.3707 23.0882C14.3707 23.0839 14.3693 23.0754 14.3665 23.0682C14.3665 23.0597 14.3638 23.0526 14.3638 23.044C14.361 23.034 14.361 23.0255 14.3582 23.0155C14.3582 23.0098 14.3582 23.0027 14.3582 22.997C14.3554 22.987 14.3554 22.9727 14.3554 22.9628C14.3554 22.9571 14.3554 22.9528 14.3554 22.9442C14.3554 22.9342 14.3554 22.9228 14.3554 22.91C14.3582 22.9043 14.3582 22.8972 14.3582 22.8915C14.3582 22.8815 14.361 22.8687 14.3638 22.8573C14.3638 22.853 14.3638 22.8501 14.3638 22.8444C14.3665 22.8316 14.3693 22.8188 14.3735 22.8045C14.3735 22.8045 14.3735 22.8031 14.3763 22.8002C14.379 22.786 14.3846 22.7703 14.3888 22.7575C14.3915 22.7532 14.3943 22.7503 14.3971 22.7446C14.4027 22.7346 14.4068 22.7204 14.4124 22.7076C14.4152 22.7047 14.4152 22.7047 14.4179 22.7033C14.4401 22.6577 14.4679 22.6163 14.504 22.5821C14.7582 22.3212 14.9137 21.9648 14.9137 21.5656C14.9137 20.7658 14.2916 20.13 13.5139 20.13L13.5111 20.1257ZM4.38564 20.3225C4.38564 20.3225 4.38286 20.3225 4.38008 20.3225H0.523542C0.233294 20.3111 -0.00695801 20.5506 -0.00695801 20.8471C-0.00695801 21.1479 0.233294 21.386 0.523542 21.376H4.38008C4.66894 21.386 4.9092 21.1493 4.91197 20.8528C4.91197 20.5563 4.6745 20.3139 4.38564 20.3225ZM20.5242 23.4746L20.5159 27.8413C20.5159 27.8527 20.5159 27.8598 20.5159 27.8698C20.5034 28.3773 19.8687 28.5726 19.5841 28.1592C19.3396 27.9311 19.0133 27.7914 18.6536 27.7914C17.8731 27.7914 17.2537 28.4272 17.2537 29.2284C17.2537 30.0268 17.8731 30.6626 18.6536 30.6626C19.0133 30.6626 19.3369 30.5272 19.5841 30.2977C19.8715 29.8771 20.5159 30.0824 20.5159 30.597C20.5159 30.6056 20.5159 30.6127 20.5159 30.6184C20.5159 33.0064 20.5242 35.4129 20.527 37.8036H23.5517C23.6642 36.7772 24.0169 35.842 24.5905 34.998C25.2668 34.0072 26.1542 33.0834 27.0916 32.0583C28.965 30.0111 31.0329 27.5847 32.0772 23.5886C32.0869 23.5544 32.0925 23.5088 32.0994 23.4746H28.7873C28.8845 23.7454 28.9386 24.0348 28.9386 24.3371C28.9386 25.7057 27.8457 26.8248 26.5153 26.8248C25.1821 26.8248 24.0891 25.7057 24.0891 24.3371C24.0891 24.0348 24.1433 23.7454 24.2405 23.4746H20.5242ZM4.91753 24.4739C4.8717 24.4739 4.82587 24.4811 4.77865 24.4925L1.05543 25.5161C0.779072 25.5902 0.612422 25.8796 0.687414 26.1633C0.761017 26.447 1.04571 26.6124 1.31929 26.5326L5.04529 25.5089C5.63134 25.3564 5.52163 24.4711 4.91753 24.4739ZM6.49653 28.3403C6.39932 28.3388 6.30211 28.3645 6.21739 28.4144L2.87746 30.3932C2.62471 30.5343 2.53167 30.8636 2.67748 31.1203C2.82191 31.3783 3.1441 31.4596 3.38991 31.3042L6.72984 29.3254C7.18257 29.0659 7.01592 28.3588 6.49653 28.3403ZM8.94766 31.662C8.81573 31.6663 8.68936 31.7219 8.59492 31.8217L5.86882 34.6202C5.65912 34.8226 5.65495 35.1634 5.85632 35.3744C6.06185 35.5839 6.39376 35.5782 6.59374 35.363L9.32124 32.5659C9.65731 32.2323 9.41706 31.6492 8.94766 31.662ZM15.9067 38.8558C15.4262 38.8558 15.0526 39.2393 15.0526 39.7325C15.0526 40.2272 15.4262 40.6079 15.9067 40.6079H24.1016C24.5835 40.6079 24.9543 40.2272 24.9543 39.7325C24.9543 39.2393 24.5835 38.8558 24.1016 38.8558H15.9067ZM16.0678 41.6586L16.1164 45.7887C16.14 47.9955 17.8398 49.7505 20.0021 49.7505C22.1643 49.7505 23.8614 47.9955 23.8864 45.7887L23.9378 41.6586H16.0678ZM18.0773 45.197H21.931C22.2157 45.1942 22.449 45.4308 22.449 45.7231C22.449 46.0139 22.2157 46.2506 21.931 46.2477H18.0773C17.7912 46.2506 17.5607 46.0139 17.5607 45.7231C17.5607 45.4308 17.7912 45.1942 18.0773 45.197Z" fill="#095D40"/>
</g>
</g>
<defs>
<clipPath id="clip0_251_55">
<rect width="40" height="50" fill="white"/>
</clipPath>
</defs>
</svg>
