<svg width="40" height="40" viewBox="0 0 40 40" fill="none" xmlns="http://www.w3.org/2000/svg">
<path d="M35.8219 14.125C37.166 17.7354 37.2344 21.697 36.0156 25.3516C34.7967 29.0063 32.3641 32.1338 29.1219 34.2146C25.8796 36.2954 22.023 37.2042 18.1929 36.79C14.3627 36.3757 10.7896 34.6634 8.0672 31.9375C5.00915 28.8895 3.23572 24.7853 3.11187 20.4695C2.98802 16.1536 4.52316 11.9545 7.40138 8.73613C10.2796 5.51779 14.2819 3.52512 18.5848 3.16816C22.8876 2.8112 27.1636 4.11712 30.5328 6.81717L33.6734 3.67498C33.8479 3.50057 34.0549 3.36222 34.2828 3.26783C34.5107 3.17344 34.7549 3.12485 35.0016 3.12485C35.2482 3.12485 35.4925 3.17344 35.7203 3.26783C35.9482 3.36222 36.1553 3.50057 36.3297 3.67498C36.5041 3.84939 36.6425 4.05645 36.7369 4.28433C36.8312 4.51221 36.8798 4.75645 36.8798 5.00311C36.8798 5.24976 36.8312 5.494 36.7369 5.72188C36.6425 5.94976 36.5041 6.15682 36.3297 6.33123L21.3297 21.3312C21.1553 21.5056 20.9482 21.644 20.7204 21.7384C20.4925 21.8328 20.2482 21.8814 20.0016 21.8814C19.7549 21.8814 19.5107 21.8328 19.2828 21.7384C19.0549 21.644 18.8479 21.5056 18.6735 21.3312C18.499 21.1568 18.3607 20.9498 18.2663 20.7219C18.1719 20.494 18.1233 20.2498 18.1233 20.0031C18.1233 19.7565 18.1719 19.5122 18.2663 19.2843C18.3607 19.0565 18.499 18.8494 18.6735 18.675L22.4234 14.925C21.3665 14.42 20.1784 14.2576 19.0247 14.4604C17.8711 14.6632 16.8095 15.2211 15.9881 16.0562C15.1668 16.8913 14.6266 17.962 14.4431 19.1189C14.2595 20.2757 14.4416 21.4611 14.9641 22.5094C15.4866 23.5578 16.3233 24.4169 17.3575 24.9669C18.3917 25.5169 19.5718 25.7302 20.7331 25.5773C21.8944 25.4243 22.979 24.9127 23.8355 24.1137C24.692 23.3146 25.2778 22.2682 25.5109 21.1203C25.6092 20.6328 25.897 20.2042 26.3112 19.9289C26.7254 19.6536 27.232 19.5541 27.7195 19.6523C28.2071 19.7505 28.6356 20.0384 28.9109 20.4526C29.1862 20.8668 29.2857 21.3734 29.1875 21.8609C28.7881 23.8284 27.7677 25.6156 26.2764 26.9597C24.7852 28.3038 22.9018 29.1336 20.9036 29.3271C18.9054 29.5207 16.8978 29.0676 15.1763 28.0347C13.4549 27.0018 12.1105 25.4435 11.341 23.5893C10.5714 21.735 10.4175 19.6827 10.9017 17.7344C11.386 15.7861 12.4829 14.0447 14.031 12.7665C15.579 11.4883 17.4966 10.7409 19.5013 10.6341C21.506 10.5273 23.4921 11.0669 25.1672 12.1734L27.8594 9.49061C25.3305 7.60194 22.2057 6.68785 19.0576 6.91587C15.9095 7.14388 12.949 8.49872 10.7187 10.7321C8.4883 12.9655 7.13748 15.9278 6.91374 19.0762C6.69 22.2246 7.60832 25.3482 9.50042 27.8745C11.3925 30.4008 14.1316 32.1607 17.2159 32.8316C20.3001 33.5026 23.5227 33.0396 26.2933 31.5275C29.0639 30.0154 31.1968 27.5556 32.3011 24.5988C33.4055 21.6419 33.4073 18.3862 32.3063 15.4281C32.2186 15.1968 32.1776 14.9505 32.1855 14.7033C32.1935 14.4561 32.2503 14.213 32.3526 13.9878C32.4549 13.7627 32.6008 13.56 32.7818 13.3914C32.9628 13.2229 33.1753 13.0918 33.4072 13.0058C33.6391 12.9197 33.8857 12.8804 34.1328 12.89C34.3799 12.8997 34.6227 12.9582 34.8472 13.062C35.0716 13.1659 35.2733 13.3132 35.4406 13.4954C35.6078 13.6775 35.7374 13.891 35.8219 14.1234V14.125Z" fill="white"/>
</svg>
