<svg width="40" height="40" viewBox="0 0 40 40" fill="none" xmlns="http://www.w3.org/2000/svg">
<path d="M35.6015 7.32662C35.5549 6.56529 35.2314 5.8473 34.6921 5.30794C34.1527 4.76859 33.4347 4.44512 32.6734 4.3985C30.6218 4.27818 25.3843 4.46412 21.0359 8.811L20.4687 9.37506H11.6187C11.2081 9.37369 10.8014 9.45393 10.4221 9.61111C10.0428 9.7683 9.69857 9.9993 9.40933 10.2907L4.04214 15.6547C3.63126 16.0654 3.34299 16.5825 3.20971 17.148C3.07642 17.7134 3.10339 18.3048 3.28758 18.8558C3.47178 19.4068 3.80591 19.8955 4.25247 20.2671C4.69902 20.6387 5.24032 20.8784 5.81558 20.9594L11.6187 21.7688L18.2312 28.3813L19.0421 34.1907C19.1211 34.7669 19.3603 35.3093 19.7324 35.7562C20.1044 36.2032 20.5945 36.5367 21.1468 36.7188C21.468 36.8241 21.8041 36.8769 22.1421 36.8751C22.5517 36.8748 22.9571 36.7936 23.3352 36.6362C23.7133 36.4788 24.0565 36.2483 24.3453 35.9579L29.7109 30.5907C30.0019 30.3012 30.2325 29.9569 30.3894 29.5776C30.5463 29.1984 30.6264 28.7917 30.625 28.3813V19.5313L31.1875 18.9704C35.5359 14.6157 35.7218 9.37506 35.6015 7.32662ZM11.875 13.1251H16.7187L11.8359 18.0126L7.58121 17.4188L11.875 13.1251ZM23.6875 11.4641C24.7574 10.3854 26.034 9.53363 27.4408 8.95988C28.8476 8.38614 30.3558 8.1022 31.875 8.12506C31.8987 9.64472 31.615 11.1535 31.041 12.5608C30.4669 13.968 29.6143 15.2447 28.5343 16.3141L20 24.8438L15.1562 20.0001L23.6875 11.4641ZM26.875 28.1251L22.5796 32.4204L21.9859 28.1657L26.875 23.2813V28.1251ZM15.625 31.5626C14.264 33.4141 11.5328 35.6251 6.24996 35.6251C5.75268 35.6251 5.27576 35.4275 4.92413 35.0759C4.5725 34.7243 4.37496 34.2473 4.37496 33.7501C4.37496 28.4626 6.58121 25.7313 8.43746 24.3751C8.63385 24.2101 8.86201 24.0871 9.10781 24.0138C9.35362 23.9405 9.61186 23.9185 9.86654 23.949C10.1212 23.9795 10.3669 24.0619 10.5885 24.1912C10.81 24.3204 11.0027 24.4938 11.1546 24.7005C11.3065 24.9072 11.4143 25.1429 11.4714 25.3929C11.5286 25.643 11.5338 25.9021 11.4868 26.1543C11.4398 26.4064 11.3416 26.6463 11.1982 26.8589C11.0547 27.0716 10.8692 27.2526 10.6531 27.3907C9.73433 28.0672 8.67339 29.3438 8.28121 31.7188C10.6578 31.3266 11.9328 30.2657 12.6093 29.3469C12.7474 29.1308 12.9284 28.9453 13.1411 28.8019C13.3538 28.6585 13.5936 28.5602 13.8458 28.5132C14.0979 28.4662 14.357 28.4714 14.6071 28.5286C14.8571 28.5857 15.0928 28.6936 15.2995 28.8454C15.5062 28.9973 15.6796 29.19 15.8089 29.4115C15.9381 29.6331 16.0206 29.8788 16.0511 30.1335C16.0816 30.3882 16.0595 30.6464 15.9862 30.8922C15.9129 31.138 15.79 31.3662 15.625 31.5626Z" fill="#004D61"/>
</svg>
