<svg width="40" height="40" viewBox="0 0 40 40" fill="none" xmlns="http://www.w3.org/2000/svg">
<g clip-path="url(#clip0_251_273)">
<path d="M19.5594 24.5219C21.1298 23.2019 22.2562 21.4309 22.7859 19.449C23.3156 17.4671 23.2229 15.3702 22.5205 13.4428C21.818 11.5153 20.5397 9.85053 18.859 8.67421C17.1783 7.49789 15.1765 6.86694 13.125 6.86694C11.0735 6.86694 9.07169 7.49789 7.39097 8.67421C5.71026 9.85053 4.43199 11.5153 3.72953 13.4428C3.02706 15.3702 2.9344 17.4671 3.4641 19.449C3.99379 21.4309 5.12023 23.2019 6.69062 24.5219C4.23841 25.6307 2.11331 27.3528 0.520312 29.5219C0.226088 29.9229 0.103184 30.4243 0.178638 30.9158C0.254092 31.4074 0.521723 31.8488 0.922656 32.143C1.32359 32.4372 1.82498 32.5602 2.31653 32.4847C2.80808 32.4092 3.24953 32.1416 3.54375 31.7407C4.64647 30.2346 6.08869 29.0098 7.7534 28.1654C9.4181 27.3211 11.2584 26.881 13.125 26.881C14.9916 26.881 16.8319 27.3211 18.4966 28.1654C20.1613 29.0098 21.6035 30.2346 22.7063 31.7407C23.0005 32.1418 23.442 32.4097 23.9337 32.4853C24.4254 32.5609 24.927 32.438 25.3281 32.1438C25.7293 31.8496 25.9971 31.4081 26.0727 30.9164C26.1483 30.4247 26.0255 29.9231 25.7312 29.5219C24.1373 27.3531 22.0118 25.6311 19.5594 24.5219ZM6.875 16.8751C6.875 15.6389 7.24156 14.4305 7.92831 13.4027C8.61507 12.3749 9.59119 11.5739 10.7332 11.1008C11.8753 10.6278 13.1319 10.504 14.3443 10.7451C15.5567 10.9863 16.6703 11.5816 17.5444 12.4556C18.4185 13.3297 19.0138 14.4434 19.2549 15.6557C19.4961 16.8681 19.3723 18.1248 18.8992 19.2668C18.4262 20.4089 17.6251 21.385 16.5973 22.0717C15.5695 22.7585 14.3611 23.1251 13.125 23.1251C11.4674 23.1251 9.87768 22.4666 8.70558 21.2945C7.53348 20.1224 6.875 18.5327 6.875 16.8751ZM39.0781 32.136C38.8796 32.2819 38.6543 32.3872 38.4151 32.4459C38.1759 32.5047 37.9275 32.5157 37.684 32.4784C37.4405 32.4412 37.2067 32.3563 36.9961 32.2286C36.7854 32.1009 36.602 31.933 36.4563 31.7344C35.3508 30.2313 33.908 29.0085 32.2439 28.1645C30.5798 27.3205 28.7409 26.8789 26.875 26.8751C26.3777 26.8751 25.9008 26.6775 25.5492 26.3259C25.1975 25.9742 25 25.4973 25 25.0001C25 24.5028 25.1975 24.0259 25.5492 23.6742C25.9008 23.3226 26.3777 23.1251 26.875 23.1251C27.7633 23.1235 28.6411 22.9325 29.4499 22.565C30.2586 22.1974 30.9797 21.6617 31.5651 20.9935C32.1504 20.3253 32.5866 19.5399 32.8446 18.6899C33.1025 17.8398 33.1763 16.9445 33.061 16.0637C32.9456 15.1829 32.6439 14.3368 32.1758 13.5817C31.7077 12.8267 31.084 12.1802 30.3464 11.6852C29.6087 11.1902 28.774 10.8582 27.8979 10.7112C27.0218 10.5642 26.1244 10.6057 25.2656 10.8329C25.0258 10.9023 24.7745 10.923 24.5265 10.894C24.2785 10.865 24.0388 10.7867 23.8214 10.6637C23.6041 10.5408 23.4135 10.3757 23.2608 10.1781C23.1082 9.98052 22.9965 9.75442 22.9324 9.5131C22.8683 9.27177 22.853 9.02007 22.8875 8.77276C22.922 8.52546 23.0055 8.28753 23.1332 8.07295C23.2609 7.85837 23.4302 7.67145 23.6311 7.52316C23.832 7.37488 24.0604 7.26821 24.3031 7.20943C26.4992 6.62755 28.8279 6.81077 30.9059 7.72892C32.9839 8.64706 34.6873 10.2454 35.7358 12.2608C36.7842 14.2762 37.1152 16.5886 36.6742 18.8172C36.2331 21.0458 35.0464 23.0578 33.3094 24.5219C35.7616 25.6307 37.8867 27.3528 39.4797 29.5219C39.7718 29.9223 39.8935 30.422 39.8183 30.9118C39.7431 31.4017 39.4769 31.8418 39.0781 32.136Z" fill="#004D61"/>
</g>
<defs>
<clipPath id="clip0_251_273">
<rect width="40" height="40" fill="white"/>
</clipPath>
</defs>
</svg>
