<svg width="40" height="40" viewBox="0 0 40 40" fill="none" xmlns="http://www.w3.org/2000/svg">
<path d="M37.5 15.3125C37.5027 16.5029 37.2693 17.682 36.8134 18.7816C36.3574 19.8812 35.688 20.8795 34.8438 21.7188L20.8906 35.8781C20.7743 35.9963 20.6357 36.09 20.4828 36.1541C20.3299 36.2181 20.1658 36.2511 20 36.2511C19.8343 36.2511 19.6702 36.2181 19.5173 36.1541C19.3644 36.09 19.2257 35.9963 19.1094 35.8781L5.15627 21.7188C3.45516 20.0197 2.49866 17.7145 2.49719 15.3102C2.49573 12.906 3.44942 10.5996 5.14846 8.89846C6.8475 7.19735 9.15273 6.24085 11.557 6.23938C13.9613 6.23792 16.2677 7.19161 17.9688 8.89065L20 10.7891L22.0453 8.8844C23.3148 7.62126 24.93 6.76253 26.6871 6.41664C28.4442 6.07074 30.2644 6.25318 31.9179 6.94092C33.5714 7.62866 34.984 8.79088 35.9775 10.2808C36.971 11.7708 37.5008 13.5217 37.5 15.3125Z" fill="white"/>
</svg>
