<svg width="39" height="27" viewBox="0 0 39 27" fill="none" xmlns="http://www.w3.org/2000/svg">
<path d="M38.598 12.3641C38.5402 12.2375 37.1715 9.19844 34.148 6.175C30.1027 2.13594 25.0043 0 19.3793 0C13.7543 0 8.65584 2.13594 4.61521 6.175C1.59178 9.19844 0.223026 12.2375 0.160526 12.3641C0.0546711 12.6041 0 12.8635 0 13.1258C0 13.3881 0.0546711 13.6475 0.160526 13.8875C0.218338 14.0156 1.58709 17.0531 4.61209 20.0766C8.65584 24.1156 13.7543 26.25 19.3793 26.25C25.0043 26.25 30.1027 24.1156 34.1418 20.0766C37.1668 17.0531 38.5355 14.0156 38.5933 13.8875C38.6999 13.6478 38.7554 13.3886 38.7562 13.1263C38.757 12.864 38.7031 12.6044 38.598 12.3641ZM31.4011 17.5203C28.0465 20.8234 24.0027 22.5 19.3793 22.5C14.7558 22.5 10.7121 20.8234 7.36209 17.5187C6.04394 16.2144 4.91003 14.7361 3.99178 13.125C4.91031 11.5145 6.0442 10.0368 7.36209 8.73281C10.7137 5.42656 14.7558 3.75 19.3793 3.75C24.0027 3.75 28.0449 5.42656 31.3965 8.73281C32.7145 10.0367 33.8484 11.5144 34.7668 13.125C33.8484 14.736 32.7145 16.2142 31.3965 17.5187L31.4011 17.5203ZM19.3793 6.25C18.0195 6.25 16.6903 6.65321 15.5597 7.40865C14.4291 8.16408 13.548 9.23781 13.0276 10.4941C12.5073 11.7503 12.3711 13.1326 12.6364 14.4662C12.9017 15.7999 13.5564 17.0249 14.5179 17.9864C15.4794 18.9478 16.7044 19.6026 18.038 19.8679C19.3716 20.1332 20.754 19.997 22.0102 19.4767C23.2665 18.9563 24.3402 18.0751 25.0956 16.9445C25.8511 15.814 26.2543 14.4847 26.2543 13.125C26.2522 11.3023 25.5272 9.55479 24.2383 8.26592C22.9495 6.97706 21.202 6.25207 19.3793 6.25ZM19.3793 16.25C18.7612 16.25 18.157 16.0667 17.6431 15.7233C17.1292 15.38 16.7287 14.8919 16.4922 14.3209C16.2556 13.7499 16.1937 13.1215 16.3143 12.5153C16.4349 11.9092 16.7325 11.3523 17.1696 10.9153C17.6066 10.4783 18.1634 10.1806 18.7696 10.06C19.3758 9.93947 20.0041 10.0014 20.5752 10.2379C21.1462 10.4744 21.6342 10.8749 21.9776 11.3888C22.321 11.9027 22.5043 12.5069 22.5043 13.125C22.5043 13.9538 22.175 14.7487 21.589 15.3347C21.0029 15.9208 20.2081 16.25 19.3793 16.25Z" fill="white"/>
</svg>
