<svg width="100" height="40" viewBox="0 0 100 40" fill="none" xmlns="http://www.w3.org/2000/svg">
<path d="M72.0701 15.42L61.0001 14.37C60.9725 14.3633 60.9479 14.3479 60.9299 14.3261C60.912 14.3042 60.9016 14.277 60.9005 14.2487C60.8994 14.2204 60.9075 14.1926 60.9237 14.1693C60.9398 14.1461 60.9631 14.1287 60.9901 14.12C65.1967 13.34 69.3801 11.27 73.5401 7.90995C73.7365 7.75064 73.8737 7.53006 73.9299 7.28349C73.9862 7.03693 73.958 6.77864 73.8501 6.54995C73.0501 4.83995 74.2001 2.83995 75.9401 2.45995C79.8801 1.60995 81.2701 7.22995 77.2801 8.35995C76.3201 8.62995 75.6501 8.04995 74.7201 8.04995C74.3913 8.05035 74.0717 8.17108 73.8201 8.38995C71.1267 10.75 68.0401 12.53 64.5601 13.73C64.4658 13.7664 64.3869 13.8342 64.3367 13.922C64.2866 14.0097 64.2681 14.1121 64.2846 14.2119C64.301 14.3116 64.3513 14.4027 64.4269 14.4697C64.5026 14.5367 64.5991 14.5757 64.7001 14.58H71.6701C71.8335 14.5799 71.9938 14.5406 72.1368 14.4656C72.2798 14.3907 72.4011 14.2822 72.4901 14.15C73.5901 12.49 74.9034 12.3633 76.4301 13.77C76.5686 13.8934 76.7381 13.9765 76.9198 14.01C77.1015 14.0435 77.2884 14.0262 77.4601 13.96L81.5801 12.34C81.7267 12.2824 81.8507 12.1782 81.9336 12.0431C82.0165 11.9079 82.0539 11.749 82.0401 11.59C81.7601 8.39995 84.6001 6.49995 87.3401 8.04995C87.6296 8.21455 87.8761 8.444 88.0601 8.71995C90.4701 12.37 86.2601 16.38 82.8401 12.99C82.7122 12.8623 82.5505 12.7745 82.3747 12.7372C82.1989 12.6999 82.0166 12.7148 81.8501 12.78L77.4001 14.53C77.2766 14.5772 77.1636 14.6493 77.0674 14.742C76.9712 14.8347 76.894 14.9462 76.8401 15.07C76.2301 16.5 75.1501 17.88 73.4801 16.84C73.0134 16.5466 72.6801 16.1733 72.4801 15.72C72.4472 15.6384 72.3916 15.5673 72.3193 15.5144C72.247 15.4615 72.1608 15.4289 72.0701 15.42Z" fill="#7EAF45"/>
<path d="M12.48 30.61C13.5866 28.1433 14.38 26.72 14.86 26.34C14.9145 26.2967 14.9801 26.2697 15.0492 26.2621C15.1184 26.2544 15.1883 26.2664 15.251 26.2967C15.3136 26.327 15.3665 26.3743 15.4034 26.4333C15.4404 26.4922 15.46 26.5604 15.46 26.63V33.61C15.46 33.7983 15.3852 33.9789 15.252 34.112C15.1189 34.2452 14.9383 34.32 14.75 34.32H12.31C12.0336 34.3201 11.7636 34.2348 11.5365 34.0757C11.3094 33.9165 11.1361 33.6911 11.04 33.43C9.64663 29.6633 9.83663 26.09 11.61 22.71C11.9383 22.0863 12.1099 21.3965 12.11 20.7V9.71999C12.11 9.52638 12.1858 9.3407 12.3208 9.2038C12.4559 9.0669 12.639 8.98999 12.83 8.98999H14.61C14.8248 8.98999 15.0308 9.07638 15.1827 9.23016C15.3346 9.38394 15.42 9.59251 15.42 9.80999V18.86C15.4206 18.9254 15.437 18.9897 15.4676 19.0474C15.4981 19.1051 15.542 19.1544 15.5953 19.1909C15.6486 19.2275 15.7097 19.2501 15.7733 19.2569C15.8369 19.2637 15.901 19.2545 15.96 19.23C18.2266 18.3167 20.5666 17.9067 22.98 18C23.0578 18.0027 23.1354 17.9897 23.2081 17.9617C23.2808 17.9338 23.3471 17.8915 23.4031 17.8373C23.4591 17.7832 23.5036 17.7184 23.534 17.6467C23.5644 17.575 23.58 17.4979 23.58 17.42V10.19C23.58 9.87438 23.7053 9.5717 23.9285 9.34853C24.1517 9.12537 24.4544 8.99999 24.77 8.99999H26.01C26.2036 8.99999 26.3892 9.0769 26.5261 9.2138C26.6631 9.3507 26.74 9.53638 26.74 9.72999V33.78C26.74 33.9179 26.6852 34.0502 26.5877 34.1477C26.4901 34.2452 26.3579 34.3 26.22 34.3H24.04C23.918 34.3 23.801 34.2515 23.7147 34.1653C23.6284 34.079 23.58 33.962 23.58 33.84V20.92C23.5804 20.8162 23.559 20.7136 23.5172 20.6184C23.4753 20.5233 23.4139 20.4378 23.3369 20.3673C23.2598 20.2968 23.1687 20.2429 23.0694 20.2089C22.9701 20.1749 22.8648 20.1617 22.76 20.17C17.01 20.62 11.28 24.38 11.99 30.53C11.9977 30.5849 12.0228 30.6359 12.0616 30.6755C12.1004 30.7152 12.1508 30.7414 12.2055 30.7503C12.2603 30.7592 12.3164 30.7504 12.3658 30.7252C12.4151 30.7 12.4552 30.6596 12.48 30.61Z" fill="#007C92"/>
<path d="M73.1899 20.13L72.2099 21.82C72.1785 21.8767 72.1356 21.9262 72.0839 21.9657C72.0322 22.0052 71.9728 22.0337 71.9093 22.0496C71.8457 22.0655 71.7793 22.0684 71.7142 22.0581C71.649 22.0479 71.5863 22.0247 71.5299 21.99C68.4299 20.0767 66.2366 19.9267 64.9499 21.54C64.8148 21.7093 64.7225 21.9086 64.6806 22.1211C64.6387 22.3336 64.6486 22.5531 64.7094 22.761C64.7702 22.9689 64.8801 23.1591 65.0299 23.3156C65.1797 23.472 65.3649 23.5902 65.5699 23.66C68.5833 24.68 70.4233 25.3433 71.0899 25.65C74.8999 27.39 74.5999 32.59 70.9299 33.92C67.4033 35.2 64.1099 34.76 61.0499 32.6C60.9641 32.54 60.9042 32.4494 60.882 32.3458C60.8598 32.2422 60.8769 32.1331 60.9299 32.04L61.9899 30.21C62.0301 30.1407 62.0847 30.0808 62.15 30.0343C62.2153 29.9879 62.2898 29.956 62.3685 29.9409C62.4472 29.9257 62.5282 29.9276 62.6061 29.9464C62.6839 29.9653 62.7569 30.0006 62.8199 30.05C64.6933 31.5167 66.6766 32.05 68.7699 31.65C69.0369 31.5991 69.2915 31.4973 69.5177 31.3511C69.7439 31.2048 69.9368 31.0174 70.0843 30.8004C70.2317 30.5834 70.3306 30.3417 70.3746 30.0903C70.4186 29.839 70.4068 29.5835 70.3399 29.34C70.2399 28.9667 69.8566 28.62 69.1899 28.3C68.7566 28.0933 67.0966 27.51 64.2099 26.55C59.9999 25.15 60.5499 19.61 64.3899 18.17C67.3566 17.0567 70.2599 17.56 73.0999 19.68C73.1666 19.7316 73.2125 19.8055 73.229 19.8882C73.2455 19.9709 73.2317 20.0567 73.1899 20.13Z" fill="#3E545A"/>
<path d="M36.61 18.05C37.0433 18.05 37.4667 18.0567 37.88 18.07C38.0539 18.0786 38.2217 18.1368 38.3635 18.2378C38.5053 18.3389 38.6151 18.4785 38.68 18.64L44.61 33.7701C44.6329 33.8296 44.6408 33.8939 44.6331 33.9572C44.6254 34.0205 44.6023 34.081 44.5658 34.1333C44.5293 34.1857 44.4805 34.2282 44.4237 34.2573C44.3669 34.2863 44.3038 34.301 44.24 34.3H41.65C41.5371 34.2994 41.4271 34.2647 41.3343 34.2005C41.2415 34.1362 41.1703 34.0455 41.13 33.94L40.24 31.68C40.1531 31.4639 40.0042 31.2782 39.812 31.1465C39.6198 31.0148 39.393 30.943 39.16 30.9401C38.8333 30.9334 37.9833 30.93 36.61 30.93C35.23 30.93 34.3767 30.93 34.05 30.93C33.8159 30.9338 33.5882 31.0071 33.3958 31.1407C33.2035 31.2742 33.0553 31.462 32.97 31.68L32.08 33.93C32.0397 34.0355 31.9685 34.1262 31.8757 34.1905C31.7829 34.2547 31.6728 34.2894 31.56 34.2901H28.97C28.9062 34.291 28.8431 34.2763 28.7863 34.2473C28.7295 34.2182 28.6807 34.1757 28.6442 34.1233C28.6077 34.071 28.5845 34.0105 28.5768 33.9472C28.5691 33.8839 28.5771 33.8196 28.6 33.76L34.55 18.64C34.6148 18.4785 34.7247 18.3389 34.8665 18.2378C35.0083 18.1368 35.1761 18.0786 35.35 18.07C35.7567 18.0567 36.1767 18.05 36.61 18.05ZM36.61 28.0301C36.7767 28.0301 37.33 28.0634 38.27 28.13C38.3416 28.1346 38.4133 28.1212 38.4784 28.0909C38.5435 28.0607 38.6 28.0147 38.6427 27.957C38.6855 27.8993 38.7131 27.8319 38.7231 27.7608C38.7331 27.6897 38.7252 27.6173 38.7 27.55L36.85 22.43C36.8443 22.4125 36.8328 22.3967 36.817 22.3844C36.8011 22.372 36.7814 22.3636 36.76 22.3601C36.7333 22.3534 36.7133 22.35 36.7 22.35C36.68 22.35 36.6567 22.3534 36.63 22.3601C36.6085 22.3635 36.5887 22.3718 36.5728 22.3842C36.5569 22.3965 36.5456 22.4124 36.54 22.43L34.54 27.49C34.5131 27.557 34.5034 27.6296 34.5119 27.7012C34.5204 27.7728 34.5468 27.8412 34.5886 27.8999C34.6304 27.9587 34.6864 28.006 34.7513 28.0375C34.8162 28.0689 34.8879 28.0836 34.96 28.08C35.9 28.0467 36.45 28.0301 36.61 28.0301Z" fill="#3E545A"/>
<path d="M49.89 33.78C49.89 33.9206 49.8341 34.0554 49.7347 34.1548C49.6354 34.2542 49.5005 34.3101 49.36 34.3101H47.12C46.9821 34.3101 46.8498 34.2553 46.7523 34.1577C46.6548 34.0602 46.6 33.928 46.6 33.79V18.47C46.6 18.4062 46.6127 18.3429 46.6374 18.284C46.6622 18.2251 46.6984 18.1718 46.7441 18.1271C46.7897 18.0823 46.8438 18.0472 46.9032 18.0237C46.9626 18.0001 47.0261 17.9887 47.09 17.99C50.13 18.09 54.87 17.6 56.78 18.74C59.31 20.26 60.07 23.25 58.85 25.93C57.2 29.56 54.01 28.99 50.5 29.01C50.3373 29.0127 50.1821 29.0792 50.068 29.1951C49.9539 29.3111 49.89 29.4673 49.89 29.63V33.78ZM49.87 21.13L49.89 26.01C49.8926 26.0826 49.9232 26.1512 49.9754 26.2016C50.0277 26.252 50.0974 26.2801 50.17 26.28L53.01 26.27C53.402 26.2683 53.79 26.202 54.1515 26.0749C54.5131 25.9477 54.8413 25.7622 55.1172 25.5291C55.3931 25.2959 55.6113 25.0196 55.7594 24.7161C55.9074 24.4125 55.9824 24.0876 55.98 23.76V23.3C55.9751 22.6409 55.6577 22.0107 55.0972 21.5477C54.5367 21.0846 53.7789 20.8266 52.99 20.83L50.15 20.84C50.1124 20.84 50.0751 20.8476 50.0405 20.8623C50.0058 20.877 49.9745 20.8985 49.9484 20.9256C49.9222 20.9526 49.9018 20.9847 49.8884 21.0198C49.8749 21.055 49.8686 21.0924 49.87 21.13Z" fill="#3E545A"/>
<path d="M86.95 26.14C86.95 26.62 86.9467 26.9133 86.94 27.02C86.9298 27.1855 86.8558 27.3408 86.7331 27.4542C86.6104 27.5676 86.4484 27.6305 86.28 27.63H80.3C80.1595 27.63 80.0247 27.6858 79.9253 27.7852C79.8259 27.8846 79.77 28.0194 79.77 28.16V30.98C79.77 31.102 79.8196 31.219 79.9077 31.3053C79.9958 31.3915 80.1154 31.44 80.24 31.44H87.4C87.5618 31.44 87.717 31.5043 87.8314 31.6187C87.9458 31.7331 88.01 31.8882 88.01 32.05V33.7C88.01 33.8512 87.95 33.9962 87.8431 34.1031C87.7362 34.21 87.5912 34.27 87.44 34.27H77.31C77.1102 34.27 76.9184 34.1913 76.7761 34.051C76.6339 33.9106 76.5527 33.7198 76.55 33.52C76.5434 32.9067 76.54 30.4467 76.54 26.14C76.54 21.84 76.5434 19.3833 76.55 18.77C76.5527 18.5702 76.6339 18.3794 76.7761 18.2391C76.9184 18.0987 77.1102 18.02 77.31 18.02L87.44 18.01C87.5912 18.01 87.7362 18.0701 87.8431 18.177C87.95 18.2839 88.01 18.4288 88.01 18.58V20.23C88.01 20.3918 87.9458 20.5469 87.8314 20.6613C87.717 20.7757 87.5618 20.84 87.4 20.84L80.24 20.85C80.1154 20.85 79.9958 20.8985 79.9077 20.9847C79.8196 21.071 79.77 21.188 79.77 21.31V24.13C79.77 24.2706 79.8259 24.4054 79.9253 24.5048C80.0247 24.6042 80.1595 24.66 80.3 24.66L86.28 24.65C86.4484 24.6496 86.6104 24.7125 86.7331 24.8258C86.8558 24.9392 86.9298 25.0945 86.94 25.26C86.9467 25.3667 86.95 25.66 86.95 26.14Z" fill="#3E545A"/>
</svg>
